<svg width="100" height="100" viewBox="0 0 100 100" fill="none" xmlns="http://www.w3.org/2000/svg">
<path fill-rule="evenodd" clip-rule="evenodd" d="M58 86C55.7909 86 54 84.2091 54 82L54 58C54 55.7909 55.7909 54 58 54L82 54C84.2091 54 86 55.7909 86 58V82C86 84.2091 84.2091 86 82 86H58ZM42 14C44.2091 14 46 15.7909 46 18L46 42C46 44.2091 44.2091 46 42 46L18 46C15.7909 46 14 44.2091 14 42L14 18C14 15.7909 15.7909 14 18 14L42 14Z" fill="black"/>
<path d="M56 46H83.1716C84.9534 46 85.8457 43.8457 84.5858 42.5858L57.4142 15.4142C56.1543 14.1543 54 15.0466 54 16.8284V44C54 45.1046 54.8954 46 56 46Z" fill="black"/>
<path d="M44 54L16.8284 54C15.0466 54 14.1543 56.1543 15.4142 57.4142L42.5858 84.5858C43.8457 85.8457 46 84.9534 46 83.1716L46 56C46 54.8954 45.1046 54 44 54Z" fill="black"/>
</svg>
