<svg viewBox="0 0 1000 1000" width="1000" height="1000" xmlns="http://www.w3.org/2000/svg"><path d="M801.91 133.92s15.63 7 25.27 8.78 1.6 5.78-4 7-27.92-4.67-30.19-2.3-9.44 6.84-15.33 7.56-1.57-27.34 8.46-31 15.79 9.96 15.79 9.96z" fill="#fc927a"/><path d="M823.13 149.7c-5.65 1.22-27.92-4.67-30.19-2.3" fill="none" stroke="#49281f" stroke-linecap="round" stroke-miterlimit="10" stroke-width="2"/><path d="M788.31 122.81s28.55 4.66 40.08 4c13.67-.8 16.3 2.48 9.62 6.82-9.94 6.47-51.29 5-51.29 5z" fill="#fc927a"/><path d="M840.41 128c2.1 1.25 1.2 3.29-2.4 5.63-6.56 4.26-26.76 5.07-39.77 5.13" fill="none" stroke="#49281f" stroke-linecap="round" stroke-miterlimit="10" stroke-width="2"/><path d="M788.47 114.65s35.35-.29 46-3.36 10.75 5.95-2.06 10.39-41.25 4.41-44.91 7.77-2.05-14.84.97-14.8z" fill="#fc927a"/><path d="M841.32 111.44c2.63 2-.08 7.18-8.89 10.24-8.52 2.95-24 3.93-34.44 5.24" fill="none" stroke="#49281f" stroke-linecap="round" stroke-miterlimit="10" stroke-width="2"/><path d="M776 109.84a80.81 80.81 0 0127.86-7.49c15.92-1.29 26.74-8.5 30.87-7.73s.92 11.38-26.07 19.38-28 8.49-28 8.49z" fill="#fc927a"/><path d="M834.71 94.62c4.13.78.94 11.41-26.05 19.41-4 1.19-8.12 2.41-11.59 3.46" fill="none" stroke="#49281f" stroke-linecap="round" stroke-miterlimit="10" stroke-width="2"/><path d="M734.16 130.93c7.55-24.93 43-32 51.62-48.11 2.15-3.87 14.14 2.71-4.4 25.29 13.86 7.85 13.38 27.15 5.07 35S777.61 155 777.61 155s-32.12 2.84-38.16 7.7" fill="#fc927a"/><path d="M785.78 82.82c2.15-3.87 14.14 2.71-4.4 25.29 13.86 7.85 13.38 27.15 5.07 35" fill="none" stroke="#49281f" stroke-linecap="round" stroke-miterlimit="10" stroke-width="2"/><path d="M784.67 84.78l1.35.54a1.47 1.47 0 01.65 2.24c-1.15 1.59-3.31 3.73-6.45 3.29" fill="none" stroke="#49281f" stroke-linecap="round" stroke-miterlimit="10" stroke-width="2"/><path d="M756.63 843.51c-47.06 15.73-82.52 36.64-79.52 46.86.21.42.41.85.62 1.27 6 8.66 45.75 3.85 91.19-11.33 21.51-7.19 30.46-11.78 44.56-19.62-3.34-8.75-2.48-28.89-6-38.53-15.85 2.28-29.82 14.33-50.85 21.35z" fill="#c64242"/><rect fill="#609fd8" height="852.9" rx="81.62" transform="rotate(-18.48 353.298 507.197)" width="452.51" x="127.14" y="80.83"/><rect fill="#a0caea" height="852.9" rx="81.62" transform="rotate(-18.48 397.737 492.342)" width="452.51" x="171.56" y="65.99"/><rect fill="#609fd8" height="670.08" rx="66.56" transform="rotate(-18.48 389.351 467.285)" width="383.01" x="197.93" y="132.32"/><g fill="#fff"><rect height="670.08" rx="50.28" transform="rotate(-18.48 358.527 477.572)" width="318.04" x="199.61" y="142.61"/><circle cx="510.83" cy="848.55" r="30.22"/><rect height="9.82" rx="4.91" transform="rotate(-18.48 272.067 121.049)" width="83.85" x="230.2" y="116.14"/></g><path d="M378.9 82.44s-17.64-5-28.19 4.57-10 24.38-4.57 29c-17.71 4.6-22.4 30.53-6.77 40s31.81-1.21 31.81-1.21 25.05 16.06 41.59-8.13A175.44 175.44 0 01397 128l1.24-17.94c.41-12.24 2.68-32.83 2.68-32.83" fill="#c64242"/><path d="M743.77 121.46a178 178 0 00-19.6 10.81c-56.27 35.82-123.4 66.19-123.4 66.19l-116.89-53.54s-45.79-2-54.81 48.67c0 0 134.65 111.48 246.19 33.64 50.47-34.07 68.14-61.72 82.52-76.07" fill="#fc927a"/><path d="M319.1 552.1c25.2-5.81 56.89 38.26 70.76 98.42 8.22 35.64 8.35 68.93 1.86 91.36" fill="none" stroke="#49281f" stroke-linecap="round" stroke-miterlimit="10" stroke-width="2"/><path d="M284.55 581.18c3-31.13 13.61-53.07 30.54-57.31 30.57-7.64 70.13 45.31 88.37 118.26s8.26 138.29-22.31 145.93c-11.46 2.86-24.18-2.79-36.58-14.83" fill="none" stroke="#49281f" stroke-linecap="round" stroke-miterlimit="10" stroke-width="2"/><path d="M737.61 162.68c4.44 8-1.28 21-8.32 26.81-13.07 10.79-31 22.21-54 37.74-111.54 77.84-246.19-33.64-246.19-33.64 9-50.68 54.81-48.67 54.81-48.67l116.89 53.54s45-24.51 94.11-57.71c12.24-8.28 27.86-4.84 33.09 4.58z" fill="#fcc74f"/><path d="M405.2 362.11S468 489 637.05 618c58.76 131.51 200.08 361.42 200.08 361.42L980 923.9S856.73 947 818.61 849.05C765.27 712 696.4 461.73 487.16 312.67c-150.37-89.1-81.96 49.44-81.96 49.44z" fill="#fc927a"/><path d="M756.63 843.51c21-7 39.53-10 55.34-12.28-53.25-143.88-132.9-381.84-324.81-518.56-150.37-89.1-82 49.44-82 49.44s36 133.15 205.07 262.13c29.53 66.11 17.58 165.53 66.84 266.13-2.96-10.22 32.5-31.13 79.56-46.86z" fill="#f2bbbb"/><path d="M194.77 217.05s73.23 48.68 49.86 136.74c0 0-6.8 24.17-31 27.95" fill="none" stroke="#49281f" stroke-linecap="round" stroke-miterlimit="10" stroke-width="2"/><path d="M320.87 738c54.55-12.62 107.43-34.7 144.65-72.07 93.34-93.7-8.61-362-8.61-362l-87.63 8.31s-17.38 68 12.85 292.2c0 0-24.18-6.64-89.91 16.77" fill="#f2bbbb"/><path d="M478.32 371.25c3.7 13.37 7.47 28.18 11 43.89 7.79 34.93 14.23 74.34 15.4 112.4l57.23 55.9s-10.58-92.92-37.78-148.07-45.85-64.12-45.85-64.12z" fill="#49281f"/><path d="M483.6 144.9s-82.6-30.18-162.74 20.28c8.71 82 47.09 183.1 47.09 183.1s92.3-1.12 121.34-36.12c-4.84-36.71-14.07-117.07-5.69-167.26z" fill="#fcc74f"/><path d="M373.07 219.83s-29.58 42.86-27.64 60.08c-7.43-26-13.36-52.91-13.36-52.91s41.01-7.41 41-7.17z" fill="#49281f"/><path d="M196.82 351.51c11.84-17.92 23.24-36.35 33.61-54.82C269.76 254 371.54 224.6 371.54 224.6s18.72-49.51-12.84-77.81c0 0-129.21 33.63-210.53 167.9" fill="#fcc74f"/><path d="M443.58 27.62s27.12 1.58 25.53 28.7c11.95 4.34 17.24 17.23 11.17 29.68s-22.62 13.52-28.95 7.65-7.75-66.03-7.75-66.03z" fill="#c64242"/><path d="M449.11 46.61s31.09 60.34-15.17 71.7c1.37 24.39 1.36 35.69 1.36 35.69s-29.21.68-38.7-19.47c1.68-24.5 4.82-79.6 4.82-79.6s25.33-22.31 47.69-8.32z" fill="#fc927a"/><path d="M401 77.24s1.45-14.73 5.87-6.33c5.17 9.84 4.6 17.71 4.6 17.71s4.23-3.65 2.87-16.25c0 0 6.37 6.74 13.61 2.1 3.82-2.77 2.75-8 2.75-8s12.85 5.18 21.27-3 12.63-35-10.31-41.5S405 33.45 405 33.45s-18.76.28-27.66 18.51 1.59 30.48 1.59 30.48" fill="#c64242"/><path d="M411.43 88.62s4.23-3.65 2.87-16.25c0 0 6.37 6.74 13.61 2.1 3.82-2.77 2.75-8 2.75-8s12.85 5.18 21.27-3c3.16-3.07 5.72-8.75 6.49-15" fill="none" stroke="#49281f" stroke-linecap="round" stroke-miterlimit="10" stroke-width="2"/><path d="M410.68 91.71s-.5-24.42-8.34-24.12c-12.2.46-9.08 25.22 4.46 25.57" fill="#fc927a"/><path d="M433.94 118.31s-12.55 2.66-20.69-4.88c1.65 9.1 15.59 19.81 21.36 22.31z" fill="#c64242"/><path d="M404.66 82.6s-.45-8.82-4.24-6.92" fill="none" stroke="#49281f" stroke-linecap="round" stroke-miterlimit="10" stroke-width="2"/><path d="M703.67 144.62l16.26-10.77a4.25 4.25 0 014.5-.1c5.92 3.52 21.06 14 22.47 30.05a4.2 4.2 0 01-1.14 3.24 188.13 188.13 0 01-15.68 14.52z" fill="#fcc74f"/><path d="M413.72 25.87S404.4 30 401 43.2M375.55 76.4a40.38 40.38 0 007.45 12" fill="none" stroke="#49281f" stroke-linecap="round" stroke-miterlimit="10" stroke-width="2"/><path d="M389.67 141.51s-5.28-14.36 6.8-17.38c9.82 10.58 28.74 8.31 36.26 3.78 11.34-2.27 12.09 9.82 12.09 9.82s9.79 47.89-11.72 45.47-43.43-41.69-43.43-41.69z" fill="#fcc74f"/><path d="M311.86 615.17s-9.21 70.68 46.77 112.4c-9.68 40.37-58.85 48.51-71.7-15.7s-37.68-128.61 24.93-96.7zM175.13 248.78s-15.87 16.62-11.33 45.33c1.51 4.53.75 31.72 43.81 40 0 51.37-71.77 15.87-71-58.92s38.52-26.41 38.52-26.41z" fill="#fff"/><path d="M166.06 266.15c-8.13 13.36-3 65 41.55 68" fill="none" stroke="#49281f" stroke-linecap="round" stroke-miterlimit="10" stroke-width="2"/><path d="M836.9 979.3l142.78-55.15s-17-20.38-49.11-15.11c-46.08 7.55-59.68 62-111.05 41.55 0 0 0 17.41 17.38 28.71z" fill="#fcc74f"/><path d="M677.15 890.52a4.42 4.42 0 00.58 1.12c-.21-.42-.41-.85-.62-1.27a.83.83 0 01.04.15zM367.77 347.74s-16.7-18.43-9.82-27.19c16.62 3.77 102-6.41 128.42-31 6.73 6 3 22.67 3 22.67s-82.86 58.49-121.6 35.52z" fill="#f2bbbb"/><path d="M376.25 764.52c-25.21 5.81-56.89-38.25-70.77-98.42-7.46-32.37-8.25-62.8-3.47-84.92" fill="none" stroke="#49281f" stroke-linecap="round" stroke-miterlimit="10" stroke-width="2"/><path d="M358.63 334s85.41 1.45 131.89-33.57c5.31 6.24 3.41 17.09 3.41 17.09S432.73 356.05 365.5 350c-11.33-6.79-6.87-16-6.87-16z" fill="#49281f"/><g fill="none" stroke-linecap="round" stroke-miterlimit="10"><g stroke="#f2bbbb" stroke-width="1.51"><path d="M477 306s5.6 7.71 7.12 21.31M447.62 318.63s5 8.13 5.42 21.8M412.11 327.7s5 8.12 5.43 21.8M376 331.19s-2 9.32 2.09 22.37"/></g><g stroke="#49281f" stroke-width="2"><path d="M478.32 371.25c3.7 13.37 7.47 28.18 11 43.89 19 85.16 29.94 196.9-23.77 250.82-28.55 28.64-66.29 48.31-106.92 61.61 0 0-62.63-47.43-43.74-130.53M231.3 346.69c-3.24 10.1-9 17.45-17.08 20.36-20.6 7.46-48.28-16.83-61.83-54.25s-7.83-73.81 12.77-81.26c10.3-3.73 22.37.47 33.56 10.29"/></g></g><circle cx="470.89" cy="220.45" fill="#fcc74f" r="32.11"/><g fill="none" stroke="#49281f" stroke-linecap="round" stroke-miterlimit="10" stroke-width="2"><path d="M486.37 289.57c-2-15-1.77-14.71-3.71-39.25a32.11 32.11 0 00-2.42-60.59c.09-8.85.42-17.47 1.07-25.65M397 128a17.64 17.64 0 00-2 12.75M402.82 132.43a17.62 17.62 0 00-.05 12.91M411.88 133.94a17.66 17.66 0 000 12.91M433.25 130s4.57 2.34 4.77 10M427.16 133.42s4.21 3 3.35 10.61M419.89 134a44.07 44.07 0 01.76 12.84M661.72 853.89s50.83-55.28 138.69-54.08M720.96 139.13l4.13-2.91M727.76 144.42l4.13-2.91M733.05 150.46l4.13-2.91M737.58 158.77l4.13-2.91M739.09 166.33l4.13-2.92M432.73 371.16s6.8 21.91-15.1 29.46c6.8 53.64 44.57 188.87-2.27 224.37S316 661.93 316 661.93M517.77 449.11s168.8 94.29 207.32 364.74"/></g></svg>